<svg width="200" height="42" viewBox="0 0 200 42" fill="none" xmlns="http://www.w3.org/2000/svg">
<g clip-path="url(#clip0_208_865)">
<path d="M58.4991 4.87695L57.1732 6.41501C56.3246 5.35428 55.529 4.45266 54.6805 3.81623C54.2031 4.71784 53.6197 5.6725 52.8772 6.68019H57.1201V8.64253H55.476V10.4988H57.9687V12.5142H55.476V19.0907C56.6428 18.7725 57.4384 18.5603 57.9157 18.4012V20.4166C55.6882 21.1591 53.4076 21.7425 51.074 22.1668L50.4906 20.2045C51.2861 20.0984 52.2938 19.8862 53.4606 19.6211V12.5142H50.9149V10.4988H53.5137V8.64253H52.1347V7.52877C51.9226 7.79395 51.6574 8.05913 51.3392 8.27128L50.3845 6.41501C51.9226 4.71784 53.0894 2.86157 53.938 0.846191L55.9533 1.27048C55.9003 1.48263 55.7412 1.74781 55.5821 2.06603C56.5898 2.80854 57.5444 3.71015 58.4991 4.87695ZM52.9833 18.2951L51.3922 18.8785C51.2331 16.8632 51.021 15.219 50.7027 13.9462L52.1878 13.4158C52.612 15.0069 52.8242 16.598 52.9833 18.2951ZM58.0748 13.7871C58.0218 15.166 57.7566 16.598 57.3853 18.03L55.9003 17.4996C56.2185 16.1737 56.4307 14.7947 56.5898 13.3628L58.0748 13.7871ZM71.8642 22.0077H58.4991V20.0984H59.2416V14.4235H70.9096V20.0453H71.8642V22.0077ZM65.5529 3.3389H63.8027V4.92999H65.2347V9.80933H63.8027V11.4004H65.4999V13.0976H58.8703V1.53566H65.5529V3.3389ZM61.8934 4.92999V3.3389H60.7796V4.92999H61.8934ZM63.3784 8.1652V6.52108H60.7796V8.1652H63.3784ZM61.8934 11.4535V9.86237H60.7796V11.4535H61.8934ZM62.5829 20.0453V16.2798H61.31V20.0453H62.5829ZM65.7651 20.0453V16.2798H64.4922V20.0453H65.7651ZM71.8642 6.30893H68.2047C67.8335 7.47573 67.4092 8.37735 67.0379 9.06682L65.659 7.36966C66.5076 5.6725 67.091 3.55104 67.3561 1.0053L69.2655 1.32352C69.1594 2.27817 68.9472 3.28586 68.6821 4.29355H71.7582V6.30893H71.8642ZM71.5991 11.9308H66.3485V9.96844H71.5991V11.9308ZM68.8942 20.0453V16.2798H67.6213V20.0453H68.8942Z" fill="#313333"/>
<path d="M87.9343 10.817L86.7675 12.3551C85.6537 11.4535 84.1157 10.5518 82.2594 9.54415C81.0395 11.1352 79.3424 12.302 77.2209 13.0445L75.842 11.4535C78.4408 10.4988 80.0319 9.332 80.7744 8.05913H76.3723V6.14982H81.2517C81.3578 5.6725 81.4108 5.03606 81.4108 4.18748H79.5015C78.9711 4.71784 78.3877 5.24821 77.7513 5.72553L76.0541 4.55873C77.5922 3.3389 78.759 2.06603 79.6076 0.846191L81.6229 1.42959C81.4108 1.80085 81.2517 2.11906 81.0395 2.38424H87.0857V4.18748H83.4792L83.3201 6.14982H87.616V8.0061H82.9488C84.7521 8.80164 86.3962 9.75629 87.9343 10.817ZM95.0411 22.485H92.8666V21.2652H80.7213V22.432H78.5468V12.7794H95.0411V22.485ZM92.8666 16.1207V14.6887H80.7213V16.1207H92.8666ZM92.8666 19.3559V17.8709H80.7213V19.3559H92.8666ZM96.8444 11.2413H88.6768V2.49032H96.8444V11.2413ZM94.7229 9.332V4.39963H90.7982V9.332H94.7229Z" fill="#313333"/>
<path d="M122.991 8.37735H119.332L119.12 10.764H105.012L105.224 8.37735H101.724V6.94537H105.277L105.542 4.77088H119.597L119.438 6.94537H122.991V8.37735ZM120.18 19.3028H109.467L110.528 20.5227C108.3 21.5834 105.701 22.2729 102.625 22.5911L101.777 20.7348C104.588 20.5227 106.868 20.0453 108.618 19.3028H104.535V11.6126H120.127V19.3028H120.18ZM122.408 5.99072H120.286V3.86927H104.429V5.99072H102.307V2.27818H110.899L110.422 1.21745L112.702 0.899231C112.914 1.32352 113.073 1.80085 113.233 2.27818H122.355V5.99072H122.408ZM118.112 13.7871V13.0446H106.762V13.8401H118.112V13.7871ZM118.112 15.9085V15.0599H106.762V15.9085H118.112ZM118.112 17.9239V17.0753H106.762V17.9239H118.112ZM111.27 8.37735H107.293L107.186 9.38504H111.111L111.27 8.37735ZM111.482 6.14983H107.452L107.346 6.94537H111.376L111.482 6.14983ZM117.263 8.37735H113.339L113.233 9.38504H117.157L117.263 8.37735ZM117.422 6.14983H113.498L113.392 6.94537H117.316L117.422 6.14983ZM122.938 20.8939L122.249 22.6972C119.597 22.0607 117.051 21.6364 114.505 21.4243L115.142 19.7271C118.112 19.9393 120.711 20.3636 122.938 20.8939Z" fill="#313333"/>
<path d="M137.205 12.5142L135.72 14.3174C135.084 12.9385 134.394 11.8247 133.758 10.9231V22.3259H131.636V11.6656C130.788 13.4158 129.674 15.113 128.295 16.651L127.234 14.3174C128.825 12.7263 130.257 10.4988 131.53 7.63485H127.552V5.56643H131.636V1.21745H133.758V5.56643H137.152V7.63485H133.758V7.90003C135.243 9.65023 136.409 11.1883 137.205 12.5142ZM147.971 22.432H145.85V20.6818H140.122V22.432H137.894V1.74782H147.971V22.432ZM145.797 7.31663V3.81623H140.069V7.31663H145.797ZM145.797 12.8854V9.27897H140.069V12.8854H145.797ZM145.797 18.6134V14.9008H140.069V18.6134H145.797Z" fill="#313333"/>
<path d="M162.822 2.80854C161.708 3.1798 160.488 3.44498 159.215 3.65712V6.78627H162.291V8.85468H159.215V9.54416C160.488 10.8701 161.549 12.249 162.45 13.681L160.965 15.2721C160.382 14.1053 159.799 13.1506 159.215 12.302V22.3789H157.094V12.7794C155.98 15.0069 154.866 16.598 153.805 17.6057L152.586 15.6964C154.283 13.9992 155.768 11.7186 156.988 8.90772H152.798V6.8393H157.094V4.02838C156.086 4.18749 154.972 4.29356 153.858 4.3466L152.957 2.38425C156.033 2.22514 159.003 1.74782 161.761 0.952271L162.822 2.80854ZM174.012 16.2798L171.732 16.598V22.432H169.557V16.8632L162.291 17.8709L162.079 15.7494L169.61 14.7417V1.21745H171.785V14.4235L173.959 14.1583L174.012 16.2798ZM168.549 11.9308L167.064 13.5749C166.057 12.249 164.519 10.8701 162.503 9.38505L163.935 7.79396C165.898 9.27897 167.436 10.6579 168.549 11.9308ZM168.868 6.04376L167.383 7.63485C166.004 6.09679 164.572 4.77089 163.087 3.65712L164.572 2.11907C166.269 3.33891 167.701 4.66481 168.868 6.04376Z" fill="#313333"/>
<path d="M186.264 12.0369C185.362 12.4611 184.513 12.8324 183.718 13.0976V20.1514C183.718 20.8409 183.559 21.3713 183.188 21.7425C182.869 22.1138 182.286 22.3259 181.49 22.3259C180.695 22.3259 180.005 22.3259 179.422 22.3259L178.732 20.2045C179.581 20.2575 180.324 20.2575 180.96 20.2575C181.119 20.2575 181.278 20.2045 181.384 20.0453C181.543 19.8862 181.596 19.7271 181.596 19.568V13.8931C180.695 14.2113 179.793 14.4765 178.839 14.7417L178.255 12.7263C179.793 12.249 180.907 11.8777 181.596 11.6126V7.10448H178.52V5.0891H181.596V1.11137H183.718V5.0891H185.945V7.15752H183.718V10.817C184.354 10.6049 185.044 10.3397 185.786 9.9154L186.264 12.0369ZM199.788 20.7878L198.515 22.5911C196.234 21.5834 194.325 20.4696 192.84 19.2498C191.09 20.5757 189.021 21.6895 186.582 22.5911L185.362 20.6287C187.696 19.8332 189.658 18.8785 191.302 17.7648C189.923 16.2798 188.809 14.2113 187.855 11.5065H187.006V9.43808H191.832V6.2559H186.688V4.29355H191.832V1.21745H194.007V4.29355H199.098V6.36197H194.007V9.54415H198.515V11.6126C197.401 14.3174 196.022 16.4389 194.431 17.9239C195.81 18.9846 197.613 19.9393 199.788 20.7878ZM196.181 11.5595H190.188C190.772 13.3628 191.726 15.0069 192.999 16.4389C194.272 15.113 195.333 13.4688 196.181 11.5595Z" fill="#313333"/>
<path d="M29.7534 10.817H25.9348V14.6356H29.7534V10.817Z" fill="#2EABE0"/>
<path d="M29.7534 15.7494H25.9348V19.568H29.7534V15.7494Z" fill="#2EABE0"/>
<path d="M29.7534 20.6818H25.9348V24.5004H29.7534V20.6818Z" fill="#2EABE0"/>
<path d="M29.7534 25.6672H25.9348V29.4858H29.7534V25.6672Z" fill="#404393"/>
<path d="M11.1527 10.8082V14.6268H14.9713V10.8082H11.1527Z" fill="#404393"/>
<path d="M16.1021 10.8252V14.6438H19.9207V10.8252H16.1021Z" fill="#2EABE0"/>
<path d="M21.0515 10.7891V14.6077H24.8701V10.7891H21.0515Z" fill="#2EABE0"/>
<path d="M24.874 15.7494H21.0554V19.568H24.874V15.7494Z" fill="#2EABE0"/>
<path d="M2.4257e-05 29.1145C-0.0530121 35.6911 5.30366 41.1008 11.8802 41.1538C14.6911 41.1538 17.2899 40.1991 19.3583 38.6081L16.6534 36.1684C15.3275 37.07 13.6834 37.6004 11.9332 37.6004C7.31904 37.5473 3.55346 33.7817 3.60649 29.1145C3.65953 24.5004 7.42511 20.7348 12.0923 20.7878C16.7065 20.8409 20.472 24.6065 20.419 29.2737C20.419 30.7056 20.0478 32.0315 19.4113 33.1983L22.1162 35.638C23.283 33.8348 23.9724 31.6603 23.9724 29.3267C24.0255 22.6972 18.6688 17.2874 12.0923 17.2344C5.46277 17.1283 0.0530606 22.485 2.4257e-05 29.1145Z" fill="#2EABE0"/>
<path d="M12.0393 24.7656C11.668 24.7656 11.2968 24.8186 10.9255 24.9247C10.9255 25.0307 10.9255 25.1368 10.9255 25.1899C10.9255 27.0461 9.4405 28.5311 7.58423 28.5311C7.53119 28.7433 7.53119 28.9554 7.53119 29.1676C7.53119 31.6073 9.49353 33.6226 11.9332 33.6226C14.3729 33.6226 16.3883 31.6603 16.3883 29.2206C16.4413 26.7809 14.4789 24.7656 12.0393 24.7656Z" fill="#231815"/>
<path d="M34.6858 10.817H30.8672V14.6356H34.6858V10.817Z" fill="#2EABE0"/>
<path d="M34.6858 15.7494H30.8672V19.568H34.6858V15.7494Z" fill="#2EABE0"/>
<path d="M34.6858 20.6818H30.8672V24.5004H34.6858V20.6818Z" fill="#2EABE0"/>
<path d="M34.6858 25.6142H30.8672V29.4328H34.6858V25.6142Z" fill="#2EABE0"/>
<path d="M29.8065 5.8316H25.9879V9.65022H29.8065V5.8316Z" fill="#2EABE0"/>
<path d="M11.1646 5.85366V9.67227H14.9832V5.85366H11.1646Z" fill="#2EABE0"/>
<path d="M16.1138 5.87058V9.68919H19.9324V5.87058H16.1138Z" fill="#2EABE0"/>
<path d="M21.0632 5.83452V9.65314H24.8818V5.83452H21.0632Z" fill="#2EABE0"/>
<path d="M34.6858 5.8316H30.8672V9.65022H34.6858V5.8316Z" fill="#2EABE0"/>
<path d="M6.18195 5.8273V9.64592H10.0006V5.8273H6.18195Z" fill="#404393"/>
<path d="M34.6858 30.5996H30.8672V34.4182H34.6858V30.5996Z" fill="#404393"/>
<path d="M39.5651 10.817H35.7465V14.6356H39.5651V10.817Z" fill="#2EABE0"/>
<path d="M39.5651 15.7494H35.7465V19.568H39.5651V15.7494Z" fill="#2EABE0"/>
<path d="M39.5651 20.6818H35.7465V24.5004H39.5651V20.6818Z" fill="#2EABE0"/>
<path d="M39.5651 25.6142H35.7465V29.4328H39.5651V25.6142Z" fill="#2EABE0"/>
<path d="M39.6182 5.8316H35.7996V9.65022H39.6182V5.8316Z" fill="#404393"/>
<path d="M39.5651 30.5996H35.7465V34.4182H39.5651V30.5996Z" fill="#2EABE0"/>
<path d="M29.8594 0.899216H26.0408V4.71783H29.8594V0.899216Z" fill="#2EABE0"/>
<path d="M11.2292 0.899067V4.71768H15.0479V0.899067L11.2292 0.899067Z" fill="#2EABE0"/>
<path d="M16.1786 0.916033V4.73465H19.9972V0.916033L16.1786 0.916033Z" fill="#2EABE0"/>
<path d="M21.1279 0.879964V4.69858H24.9465V0.879964L21.1279 0.879964Z" fill="#2EABE0"/>
<path d="M34.7388 0.899216H30.9202V4.71783H34.7388V0.899216Z" fill="#404393"/>
<path d="M6.2467 0.87276V4.69138H10.0653V0.87276L6.2467 0.87276Z" fill="#2EABE0"/>
<path d="M39.6712 0.899216H35.8526V4.71783H39.6712V0.899216Z" fill="#404393"/>
<path d="M39.5651 35.532H35.7465V39.3506H39.5651V35.532Z" fill="#404393"/>
<path d="M1.34497 0.903415L1.34497 4.72203H5.16359V0.903415L1.34497 0.903415Z" fill="#404393"/>
<path d="M24.4498 24.5004H24.874V20.6818H22.2753C23.1769 21.8486 23.9194 23.1214 24.4498 24.5004Z" fill="#404393"/>
<path d="M19.9417 18.5073V15.8024H16.123V16.4919C17.502 16.9692 18.8279 17.6587 19.9417 18.5073Z" fill="#404393"/>
<path d="M51.4453 29.4858H52.612V37.9716H51.4453V29.4858ZM52.2408 36.8579H54.1501C54.7865 36.8579 55.2639 36.6988 55.5821 36.3805C55.9533 36.0623 56.1125 35.585 56.1125 35.0016V32.5089C56.1125 31.9255 55.9533 31.4482 55.5821 31.1299C55.2639 30.8117 54.7335 30.6526 54.1501 30.6526H52.2408V29.4858H54.1501C54.8396 29.4858 55.423 29.5919 55.9003 29.8571C56.3776 30.0692 56.7489 30.4405 57.0141 30.9178C57.2792 31.3951 57.3853 31.9255 57.3853 32.5619V34.9486C57.3853 35.585 57.2792 36.1154 57.0141 36.5927C56.7489 37.07 56.3776 37.3882 55.9003 37.6534C55.423 37.8656 54.8396 38.0247 54.1501 38.0247H52.2938V36.8579H52.2408Z" fill="#313333"/>
<path d="M59.1355 29.4858H60.3023V30.6526H59.1355V29.4858ZM59.1355 31.9255H60.3023V37.9716H59.1355V31.9255Z" fill="#313333"/>
<path d="M62.9542 37.8125C62.6359 37.6004 62.4238 37.3352 62.2647 36.9639C62.1056 36.5927 61.9995 36.1684 61.9995 35.638V34.2591C61.9995 33.7287 62.0525 33.3044 62.2647 32.9332C62.4238 32.5619 62.6359 32.2967 62.9542 32.0846C63.2724 31.8724 63.6436 31.8194 64.0679 31.8194C64.4392 31.8194 64.7574 31.9255 65.0756 32.0846C65.3938 32.2967 65.606 32.5089 65.8181 32.8801L65.7121 34.1C65.7121 33.8348 65.659 33.6226 65.5529 33.4635C65.4469 33.3044 65.3408 33.1453 65.1287 33.0392C64.9695 32.9332 64.7574 32.8801 64.4922 32.8801C64.121 32.8801 63.8027 32.9862 63.5906 33.2514C63.3785 33.5166 63.2724 33.8348 63.2724 34.2591V35.585C63.2724 36.0093 63.3785 36.3805 63.5906 36.5927C63.8027 36.8578 64.121 36.9639 64.4922 36.9639C64.7574 36.9639 64.9695 36.9109 65.1287 36.8048C65.2878 36.6987 65.4469 36.5396 65.5529 36.3805C65.659 36.1684 65.7121 35.9562 65.7121 35.691L65.8181 36.9639C65.7121 37.2821 65.4999 37.4943 65.2347 37.7064C64.9695 37.9186 64.5983 38.0246 64.227 38.0246C63.6436 38.0777 63.2724 37.9716 62.9542 37.8125ZM62.9542 40.1991C62.5829 40.04 62.3177 39.7748 62.1056 39.5097L62.9011 38.7672C63.0602 38.9793 63.2193 39.1384 63.4845 39.2445C63.6967 39.3506 63.9088 39.4036 64.174 39.4036C64.6513 39.4036 64.9695 39.2975 65.2347 39.0323C65.4999 38.7672 65.606 38.4489 65.606 37.9716V31.9255H66.7728V37.8125C66.7728 38.3429 66.6667 38.8202 66.4546 39.2445C66.2424 39.6157 65.9772 39.934 65.5529 40.1461C65.1817 40.3582 64.7044 40.4643 64.174 40.4643C63.7497 40.4113 63.3254 40.3582 62.9542 40.1991Z" fill="#313333"/>
<path d="M68.576 29.4858H69.7428V30.6526H68.576V29.4858ZM68.576 31.9255H69.7428V37.9716H68.576V31.9255Z" fill="#313333"/>
<path d="M71.1218 31.9255H74.1448V32.9332H71.1218V31.9255ZM71.7582 31.0769C71.7582 30.5465 71.8643 30.1222 72.1295 29.8571C72.3946 29.5919 72.7659 29.4328 73.2432 29.4328H74.1448V30.5465H73.2963C73.1902 30.5465 73.0841 30.5996 73.0311 30.6526C72.978 30.7587 72.925 30.8647 72.925 30.9708V37.8655H71.7582V31.0769Z" fill="#313333"/>
<path d="M76.1602 37.7595C75.789 37.5473 75.5238 37.2291 75.3116 36.8579C75.0995 36.4866 74.9934 36.0093 74.9934 35.4259V34.4182C74.9934 33.8878 75.0995 33.4105 75.3116 32.9862C75.5238 32.615 75.789 32.2967 76.1602 32.0846C76.5315 31.8724 76.9558 31.7664 77.4861 31.7664C78.0165 31.7664 78.4408 31.8724 78.812 32.0846C79.1833 32.2967 79.4485 32.5619 79.6606 32.9862C79.8728 33.3575 79.9788 33.8348 79.9788 34.4182V35.4259C79.9788 35.9562 79.8728 36.4336 79.6606 36.8579C79.4485 37.2291 79.1833 37.5473 78.812 37.7595C78.4408 37.9716 78.0165 38.0777 77.4861 38.0777C77.0088 38.0777 76.5845 37.9716 76.1602 37.7595ZM78.4938 36.5396C78.706 36.2745 78.812 35.9032 78.812 35.4259V34.4182C78.812 33.9409 78.706 33.5696 78.4938 33.3044C78.2817 33.0392 77.9634 32.9332 77.5392 32.9332C77.1149 32.9332 76.7966 33.0392 76.5845 33.3044C76.3724 33.5696 76.2663 33.9409 76.2663 34.4182V35.4259C76.2663 35.9032 76.3724 36.2745 76.5845 36.5396C76.7966 36.8048 77.1149 36.9109 77.5392 36.9109C77.9634 36.9109 78.2817 36.8048 78.4938 36.5396Z" fill="#313333"/>
<path d="M81.729 31.9255H82.8958V37.9716H81.729V31.9255ZM84.646 33.0392C84.4869 32.9862 84.2748 32.9332 84.1156 32.9332C83.7444 32.9332 83.4262 33.0392 83.214 33.2514C83.0019 33.4635 82.8958 33.7287 82.8958 34.1L82.7897 32.9332C83.0019 32.5619 83.214 32.2967 83.5322 32.0846C83.8505 31.8724 84.1687 31.7664 84.4869 31.7664C84.7521 31.7664 85.0173 31.8194 85.2294 31.8724C85.4415 31.9785 85.6537 32.0846 85.8128 32.2437L85.0173 33.3044C84.9642 33.1984 84.8051 33.1453 84.646 33.0392Z" fill="#313333"/>
<path d="M87.7221 37.7595C87.3508 37.5473 87.0326 37.2291 86.8205 36.8579C86.6083 36.4336 86.5023 35.9562 86.5023 35.3728V34.6834C86.5023 34.1 86.6083 33.5696 86.8205 33.1453C87.0326 32.721 87.2978 32.4028 87.6691 32.1907C88.0403 31.9785 88.5176 31.8724 89.048 31.8724C89.5784 31.8724 90.0027 31.9785 90.3209 32.2437C90.6921 32.5089 90.9573 32.8801 91.1164 33.3575C91.3286 33.8348 91.3816 34.4182 91.3816 35.0546V35.4259H87.2978V34.4712H90.2678C90.2148 33.9939 90.1087 33.5696 89.8966 33.3044C89.6844 33.0392 89.3662 32.8801 88.995 32.8801C88.5176 32.8801 88.1994 33.0392 87.9342 33.3044C87.6691 33.6226 87.563 33.9939 87.563 34.5773V35.3728C87.563 35.8502 87.6691 36.2745 87.9342 36.5396C88.1994 36.8048 88.5707 36.9639 89.048 36.9639C89.3132 36.9639 89.5253 36.9109 89.7905 36.8048C90.0027 36.6987 90.2148 36.5927 90.4269 36.3805L91.2225 37.1761C90.9043 37.4413 90.5861 37.7064 90.2148 37.8655C89.8435 38.0247 89.4723 38.0777 89.101 38.0777C88.6237 38.0777 88.1464 37.9716 87.7221 37.7595Z" fill="#313333"/>
<path d="M93.1318 31.9255H94.2986V37.9716H93.1318V31.9255ZM96.7913 34.3121C96.7913 33.8878 96.6853 33.5696 96.4731 33.3044C96.261 33.0923 95.9428 32.9332 95.5185 32.9332C95.1472 32.9332 94.829 33.0392 94.6168 33.2514C94.4047 33.4635 94.2986 33.7287 94.2986 34.1L94.1926 32.9332C94.4047 32.5619 94.6169 32.2967 94.9351 32.0846C95.2533 31.8724 95.5715 31.7664 95.9428 31.7664C96.5792 31.7664 97.1096 31.9785 97.4808 32.4028C97.8521 32.8271 98.0112 33.4635 98.0112 34.206V37.9716H96.8444V34.3121H96.7913Z" fill="#313333"/>
<path d="M101.936 29.4858H107.929V30.5996H101.936V29.4858ZM104.322 30.1753H105.489V37.9716H104.322V30.1753Z" fill="#313333"/>
<path d="M109.149 37.7595C108.778 37.5473 108.459 37.2291 108.247 36.8579C108.035 36.4336 107.929 35.9562 107.929 35.3728V34.6834C107.929 34.1 108.035 33.5696 108.247 33.1453C108.459 32.721 108.724 32.4028 109.096 32.1907C109.467 31.9785 109.944 31.8724 110.475 31.8724C111.005 31.8724 111.429 31.9785 111.748 32.2437C112.119 32.5089 112.384 32.8801 112.543 33.3575C112.755 33.8348 112.808 34.4182 112.808 35.0546V35.4259H108.725V34.4712H111.695C111.642 33.9939 111.535 33.5696 111.323 33.3044C111.111 33.0392 110.793 32.8801 110.422 32.8801C109.944 32.8801 109.626 33.0392 109.361 33.3044C109.096 33.6226 108.99 33.9939 108.99 34.5773V35.3728C108.99 35.8502 109.096 36.2745 109.361 36.5396C109.626 36.8048 109.997 36.9639 110.475 36.9639C110.74 36.9639 110.952 36.9109 111.217 36.8048C111.429 36.6987 111.641 36.5927 111.854 36.3805L112.649 37.1761C112.331 37.4413 112.013 37.7064 111.641 37.8655C111.27 38.0247 110.899 38.0777 110.528 38.0777C109.997 38.0777 109.52 37.9716 109.149 37.7595Z" fill="#313333"/>
<path d="M115.513 37.7595C115.142 37.5473 114.824 37.2291 114.612 36.8579C114.399 36.4866 114.293 36.0093 114.293 35.4259V34.4182C114.293 33.8878 114.399 33.4105 114.612 32.9862C114.824 32.615 115.142 32.2967 115.513 32.0846C115.884 31.8724 116.362 31.7664 116.945 31.7664C117.263 31.7664 117.582 31.8194 117.847 31.8724C118.112 31.9255 118.377 32.0846 118.589 32.1907C118.801 32.3498 119.014 32.5089 119.12 32.721L118.271 33.5166C118.112 33.3044 117.9 33.1984 117.688 33.0923C117.476 32.9862 117.21 32.9332 116.945 32.9332C116.468 32.9332 116.15 33.0392 115.884 33.3044C115.619 33.5696 115.513 33.9409 115.513 34.3652V35.3728C115.513 35.8502 115.619 36.2214 115.884 36.4866C116.15 36.7518 116.468 36.8579 116.945 36.8579C117.21 36.8579 117.422 36.8048 117.688 36.6988C117.9 36.5927 118.112 36.4336 118.271 36.2214L119.12 37.07C118.961 37.2822 118.801 37.4413 118.536 37.6004C118.324 37.7595 118.059 37.8656 117.794 37.9186C117.529 37.9716 117.21 38.0247 116.892 38.0247C116.415 38.0777 115.937 37.9716 115.513 37.7595Z" fill="#313333"/>
<path d="M120.445 29.4858H121.612V37.9716H120.445V29.4858ZM124.158 34.3121C124.158 33.8878 124.052 33.5696 123.84 33.3044C123.628 33.0923 123.309 32.9332 122.885 32.9332C122.514 32.9332 122.196 33.0392 121.984 33.2514C121.771 33.4635 121.665 33.7287 121.665 34.1L121.559 32.9332C121.771 32.5619 121.984 32.2967 122.302 32.0846C122.62 31.8724 122.938 31.7664 123.309 31.7664C123.946 31.7664 124.476 31.9785 124.848 32.4028C125.219 32.8271 125.378 33.4635 125.378 34.206V37.9716H124.211V34.3121H124.158Z" fill="#313333"/>
<path d="M127.128 31.9255H128.295V37.9716H127.128V31.9255ZM130.788 34.3121C130.788 33.8878 130.682 33.5696 130.469 33.3044C130.257 33.0923 129.939 32.9332 129.515 32.9332C129.143 32.9332 128.825 33.0392 128.613 33.2514C128.401 33.4635 128.295 33.7287 128.295 34.1L128.189 32.9332C128.401 32.5619 128.613 32.2967 128.931 32.0846C129.25 31.8724 129.568 31.7664 129.939 31.7664C130.575 31.7664 131.106 31.9785 131.477 32.4028C131.848 32.8271 132.007 33.4635 132.007 34.206V37.9716H130.841V34.3121H130.788Z" fill="#313333"/>
<path d="M134.765 37.7595C134.394 37.5473 134.129 37.2291 133.917 36.8579C133.705 36.4866 133.599 36.0093 133.599 35.4259V34.4182C133.599 33.8878 133.705 33.4105 133.917 32.9862C134.129 32.615 134.394 32.2967 134.765 32.0846C135.137 31.8724 135.561 31.7664 136.091 31.7664C136.622 31.7664 137.046 31.8724 137.417 32.0846C137.788 32.2967 138.054 32.5619 138.266 32.9862C138.478 33.3575 138.584 33.8348 138.584 34.4182V35.4259C138.584 35.9562 138.478 36.4336 138.266 36.8579C138.054 37.2291 137.788 37.5473 137.417 37.7595C137.046 37.9716 136.622 38.0777 136.091 38.0777C135.614 38.0777 135.137 37.9716 134.765 37.7595ZM137.099 36.5396C137.311 36.2745 137.417 35.9032 137.417 35.4259V34.4182C137.417 33.9409 137.311 33.5696 137.099 33.3044C136.887 33.0392 136.569 32.9332 136.144 32.9332C135.72 32.9332 135.402 33.0392 135.19 33.3044C134.977 33.5696 134.871 33.9409 134.871 34.4182V35.4259C134.871 35.9032 134.977 36.2745 135.19 36.5396C135.402 36.8048 135.72 36.9109 136.144 36.9109C136.569 36.9109 136.887 36.8048 137.099 36.5396Z" fill="#313333"/>
<path d="M141.501 36.4336C141.501 36.5927 141.554 36.6987 141.607 36.7518C141.66 36.8579 141.766 36.8579 141.872 36.8579H142.456V37.9716H141.766C141.289 37.9716 140.971 37.8125 140.705 37.5473C140.44 37.2821 140.334 36.8579 140.334 36.3805V29.4858H141.501V36.4336Z" fill="#313333"/>
<path d="M144.736 37.7595C144.365 37.5473 144.1 37.2291 143.888 36.8579C143.675 36.4866 143.569 36.0093 143.569 35.4259V34.4182C143.569 33.8878 143.675 33.4105 143.888 32.9862C144.1 32.615 144.365 32.2967 144.736 32.0846C145.107 31.8724 145.532 31.7664 146.062 31.7664C146.592 31.7664 147.017 31.8724 147.388 32.0846C147.759 32.2967 148.024 32.5619 148.237 32.9862C148.449 33.3575 148.555 33.8348 148.555 34.4182V35.4259C148.555 35.9562 148.449 36.4336 148.237 36.8579C148.024 37.2291 147.759 37.5473 147.388 37.7595C147.017 37.9716 146.592 38.0777 146.062 38.0777C145.585 38.0777 145.107 37.9716 144.736 37.7595ZM147.07 36.5396C147.282 36.2745 147.388 35.9032 147.388 35.4259V34.4182C147.388 33.9409 147.282 33.5696 147.07 33.3044C146.858 33.0392 146.539 32.9332 146.115 32.9332C145.691 32.9332 145.373 33.0392 145.16 33.3044C144.948 33.5696 144.842 33.9409 144.842 34.4182V35.4259C144.842 35.9032 144.948 36.2745 145.16 36.5396C145.373 36.8048 145.691 36.9109 146.115 36.9109C146.539 36.9109 146.858 36.8048 147.07 36.5396Z" fill="#313333"/>
<path d="M151.101 37.8125C150.782 37.6004 150.57 37.3352 150.411 36.9639C150.252 36.5927 150.146 36.1684 150.146 35.638V34.2591C150.146 33.7287 150.199 33.3044 150.411 32.9332C150.57 32.5619 150.782 32.2967 151.101 32.0846C151.419 31.8724 151.79 31.8194 152.214 31.8194C152.586 31.8194 152.904 31.9255 153.222 32.0846C153.54 32.2967 153.752 32.5089 153.964 32.8801L153.858 34.1C153.858 33.8348 153.805 33.6226 153.699 33.4635C153.593 33.3044 153.487 33.1453 153.275 33.0392C153.116 32.9332 152.904 32.8801 152.639 32.8801C152.267 32.8801 151.949 32.9862 151.737 33.2514C151.525 33.5166 151.419 33.8348 151.419 34.2591V35.585C151.419 36.0093 151.525 36.3805 151.737 36.5927C151.949 36.8578 152.267 36.9639 152.639 36.9639C152.904 36.9639 153.116 36.9109 153.275 36.8048C153.434 36.6987 153.593 36.5396 153.699 36.3805C153.805 36.1684 153.858 35.9562 153.858 35.691L153.964 36.9639C153.858 37.2821 153.646 37.4943 153.381 37.7064C153.116 37.9186 152.745 38.0246 152.373 38.0246C151.79 38.0777 151.366 37.9716 151.101 37.8125ZM151.101 40.1991C150.729 40.04 150.464 39.7748 150.252 39.5097L151.047 38.7672C151.207 38.9793 151.366 39.1384 151.631 39.2445C151.843 39.3506 152.055 39.4036 152.32 39.4036C152.798 39.4036 153.116 39.2975 153.381 39.0323C153.646 38.7672 153.752 38.4489 153.752 37.9716V31.9255H154.919V37.8125C154.919 38.3429 154.813 38.8202 154.601 39.2445C154.389 39.6157 154.124 39.934 153.699 40.1461C153.328 40.3582 152.851 40.4643 152.32 40.4643C151.843 40.4113 151.472 40.3582 151.101 40.1991Z" fill="#313333"/>
<path d="M155.927 31.9255H157.147L159.003 37.1761L158.366 38.4489L155.927 31.9255ZM161.283 31.9255L158.685 39.4036C158.579 39.6688 158.473 39.8809 158.313 40.04C158.154 40.1991 157.995 40.3052 157.73 40.4113C157.518 40.4643 157.253 40.5174 156.935 40.5174H156.722V39.3506H156.935C157.147 39.3506 157.359 39.2975 157.465 39.1915C157.571 39.0854 157.73 38.9263 157.783 38.7141L160.011 31.8724H161.283V31.9255Z" fill="#313333"/>
<path d="M166.852 37.6534C166.428 37.3882 166.057 37.017 165.792 36.5396C165.526 36.0623 165.42 35.5319 165.42 34.8955V32.5619C165.42 31.9255 165.526 31.3951 165.792 30.9178C166.057 30.4405 166.375 30.0692 166.852 29.804C167.277 29.5388 167.807 29.4328 168.39 29.4328C168.868 29.4328 169.345 29.5388 169.716 29.751C170.141 29.9631 170.459 30.2283 170.724 30.6526C170.989 31.0239 171.201 31.5012 171.254 31.9785H170.034C169.981 31.7133 169.822 31.5012 169.663 31.289C169.504 31.0769 169.292 30.9178 169.08 30.8117C168.868 30.7056 168.602 30.6526 168.337 30.6526C167.966 30.6526 167.701 30.7587 167.436 30.9178C167.17 31.0769 166.958 31.3421 166.852 31.6073C166.693 31.9255 166.64 32.2437 166.64 32.668V35.0016C166.64 35.3728 166.693 35.7441 166.852 36.0623C167.011 36.3805 167.224 36.5927 167.436 36.7518C167.701 36.9109 168.019 37.017 168.337 37.017C168.602 37.017 168.815 36.9639 169.08 36.8579C169.292 36.7518 169.504 36.5927 169.663 36.3805C169.822 36.1684 169.981 35.9032 170.034 35.638H171.254C171.148 36.1153 170.989 36.5927 170.671 36.9639C170.406 37.3352 170.034 37.6534 169.663 37.8655C169.239 38.0777 168.815 38.1838 168.337 38.1838C167.86 38.0777 167.33 37.9186 166.852 37.6534Z" fill="#313333"/>
<path d="M173.906 37.7595C173.535 37.5473 173.27 37.2291 173.058 36.8579C172.845 36.4866 172.739 36.0093 172.739 35.4259V34.4182C172.739 33.8878 172.845 33.4105 173.058 32.9862C173.27 32.615 173.535 32.2967 173.906 32.0846C174.277 31.8724 174.702 31.7664 175.232 31.7664C175.762 31.7664 176.187 31.8724 176.558 32.0846C176.929 32.2967 177.194 32.5619 177.407 32.9862C177.619 33.3575 177.725 33.8348 177.725 34.4182V35.4259C177.725 35.9562 177.619 36.4336 177.407 36.8579C177.194 37.2291 176.929 37.5473 176.558 37.7595C176.187 37.9716 175.762 38.0777 175.232 38.0777C174.702 38.0777 174.277 37.9716 173.906 37.7595ZM176.24 36.5396C176.452 36.2745 176.558 35.9032 176.558 35.4259V34.4182C176.558 33.9409 176.452 33.5696 176.24 33.3044C176.028 33.0392 175.709 32.9332 175.285 32.9332C174.861 32.9332 174.543 33.0392 174.33 33.3044C174.118 33.5696 174.012 33.9409 174.012 34.4182V35.4259C174.012 35.9032 174.118 36.2745 174.33 36.5396C174.543 36.8048 174.861 36.9109 175.285 36.9109C175.656 36.9109 175.975 36.8048 176.24 36.5396Z" fill="#313333"/>
<path d="M178.998 36.6987H180.27V37.9716H178.998V36.6987Z" fill="#313333"/>
<path d="M181.703 36.6987H182.975V38.6081L181.703 39.8809V36.6987Z" fill="#313333"/>
<path d="M184.726 29.4858H185.892V37.9716H184.726V29.4858ZM185.309 36.8579H190.188V37.9716H185.309V36.8579Z" fill="#313333"/>
<path d="M190.984 31.9255H193.689V32.9862H190.984V31.9255ZM191.992 37.6004C191.779 37.3352 191.673 36.9109 191.673 36.3805V30.1753H192.84V36.4336C192.84 36.5927 192.893 36.6987 192.946 36.7518C192.999 36.8579 193.105 36.8579 193.211 36.8579H193.795V37.9716H193.052C192.575 38.0247 192.204 37.8655 191.992 37.6004Z" fill="#313333"/>
<path d="M196.128 37.8125C195.81 37.6004 195.598 37.3352 195.439 36.9639C195.28 36.5927 195.174 36.1684 195.174 35.638V34.2591C195.174 33.7287 195.227 33.3044 195.439 32.9332C195.598 32.5619 195.81 32.2967 196.128 32.0846C196.447 31.8724 196.818 31.8194 197.242 31.8194C197.613 31.8194 197.932 31.9255 198.25 32.0846C198.568 32.2967 198.78 32.5089 198.992 32.8801L198.886 34.1C198.886 33.8348 198.833 33.6226 198.727 33.4635C198.621 33.3044 198.515 33.1453 198.303 33.0392C198.144 32.9332 197.932 32.8801 197.666 32.8801C197.295 32.8801 196.977 32.9862 196.765 33.2514C196.553 33.5166 196.447 33.8348 196.447 34.2591V35.585C196.447 36.0093 196.553 36.3805 196.765 36.5927C196.977 36.8579 197.295 36.9639 197.666 36.9639C197.932 36.9639 198.144 36.9109 198.303 36.8048C198.462 36.6988 198.621 36.5396 198.727 36.3805C198.833 36.1684 198.886 35.9562 198.886 35.6911L198.992 36.9639C198.886 37.2821 198.674 37.4943 198.409 37.7064C198.144 37.9186 197.772 38.0247 197.401 38.0247C196.818 38.0777 196.447 37.9716 196.128 37.8125ZM198.78 29.4858H199.947V37.9716H198.78V29.4858Z" fill="#313333"/>
</g>
<defs>
<clipPath id="clip0_208_865">
<rect width="200" height="40.3076" fill="white" transform="translate(0 0.846191)"/>
</clipPath>
</defs>
</svg>
